Coordinates
version=1
nRows=19
nColumns=36
inDegrees=yes

Units are S.I. units (second, meters, Newtons, ...)
If the header above contains a line with 'inDegrees', this indicates whether rotational values are in degrees (yes) or radians (no).

endheader
time	pelvis_tilt	pelvis_list	pelvis_rotation	pelvis_tx	pelvis_ty	pelvis_tz	hip_flexion_r	hip_adduction_r	hip_rotation_r	knee_angle_r	knee_angle_r_beta	ankle_angle_r	subtalar_angle_r	mtp_angle_r	hip_flexion_l	hip_adduction_l	hip_rotation_l	knee_angle_l	knee_angle_l_beta	ankle_angle_l	subtalar_angle_l	mtp_angle_l	lumbar_extension	lumbar_bending	lumbar_rotation	arm_flex_r	arm_add_r	arm_rot_r	elbow_flex_r	pro_sup_r	arm_flex_l	arm_add_l	arm_rot_l	elbow_flex_l	pro_sup_l
      2.93333330	    -16.88041746	      3.48441962	      3.42986745	      0.51510277	      0.87441157	     -0.08852515	     50.30259606	     -6.73756210	      2.17052646	     56.05668443	      0.97837371	     37.65315367	      3.43381226	     -7.49999987	     47.16600824	     -1.88607861	     -2.56079741	     51.65427371	      0.90153715	     29.71965804	      5.30510083	     -7.49999987	    -33.61010592	     -2.75455625	      2.22497257	    225.40333945	   -176.73736365	    176.64123285	     40.22236543	     83.40593390	    402.14217744	     -4.96072580	    372.34817587	     37.88771748	     74.89971227
      2.95000000	    -18.48414949	      3.59120771	      3.81561242	      0.50469895	      0.87842063	     -0.09129873	     51.15839505	     -7.28103496	      1.99850433	     53.48007254	      0.93340335	     35.74203945	      2.96885325	     -7.49999987	     47.62061042	     -1.56004613	     -3.32363653	     48.71571759	      0.85024967	     28.11361947	      6.50606337	     -7.49999987	    -31.93865114	     -2.65517094	      1.00146321	    226.82288893	   -177.86410543	    177.12141114	     44.28817085	     83.13690322	    405.27004143	     -4.24593774	    372.22008298	     41.07289505	     74.85484343
      2.96666670	    -19.26024461	      3.46044883	      4.63689002	      0.50303526	      0.89623314	     -0.08910572	     49.98460539	     -7.76575293	      1.32046015	     49.77351081	      0.86871164	     33.54212602	      2.46013196	     -7.49999987	     46.62692191	     -0.96543304	     -3.29369648	     44.72736655	      0.78063981	     25.60763692	      7.24157791	     -7.49999987	    -31.05090011	     -2.30619410	     -0.13915570	    228.04450128	   -178.93547568	    177.88917407	     47.03356303	     81.68792044	    408.01572564	     -3.21774545	    372.60986813	     44.17595860	     74.14966763
      2.98333330	    -19.78187670	      3.19019511	      5.43913180	      0.50559750	      0.90441463	     -0.08863987	     48.29227516	     -8.02114133	      0.58290919	     45.92194681	      0.80148917	     31.69828788	      1.86476963	     -7.49999987	     45.48094676	     -0.65440879	     -3.26747086	     41.30241678	      0.72086316	     23.33743304	      7.87929903	     -7.49999987	    -29.83721447	     -1.94221966	     -1.14143190	    228.08330742	   -179.86008917	    179.26691111	     51.38118231	     80.35006398	    409.22761422	     -2.91623027	    373.39197120	     48.31010141	     73.45300949
      3.00000000	    -20.10349051	      2.79631182	      6.28927431	      0.50710502	      0.91401463	     -0.08853230	     45.86369347	     -7.88385610	      0.03358978	     41.37486788	      0.72212767	     29.78631964	      0.60580499	     -7.49999987	     43.84553423	     -0.53674220	     -3.08120966	     37.62670789	      0.65670994	     20.83667975	      7.63963561	     -7.49999987	    -28.19430504	     -1.43617165	     -1.92793942	    228.20173281	   -180.65567605	    180.57247258	     54.10310569	     80.20170471	    411.06326517	     -1.85855083	    373.95277166	     51.04872892	     73.30523932
      3.01666670	    -19.97275824	      2.46535562	      6.72483270	      0.50915458	      0.93456979	     -0.08875041	     42.46349198	     -7.45779874	     -0.51744154	     35.78797854	      0.62461806	     27.61819473	      0.19339840	     -7.49999987	     40.83500780	     -0.50700606	     -3.04068342	     32.60733600	      0.56910537	     18.34138994	      7.83505115	     -7.49999987	    -27.50782165	     -0.99851553	     -2.51076033	    228.37422990	   -181.10611959	    183.06589171	     57.40764873	     75.08382250	    412.42842105	     -1.28636432	    375.01429952	     54.51277607	     67.68748844
      3.03333330	    -19.48159819	      2.17964978	      7.23921728	      0.51340552	      0.93830467	     -0.08648479	     39.19992727	     -6.99182084	     -0.90139759	     31.39899597	      0.54801586	     26.51200048	     -0.13934734	     -7.49999987	     37.93182707	     -0.60762436	     -3.00667037	     28.55568993	      0.49839081	     16.92010885	      8.08742646	     -7.49999987	    -26.47616247	     -0.80423464	     -2.78527318	    228.23726876	   -181.80585592	    184.74052908	     60.45201791	     75.00682060	    413.48007489	     -0.28995282	    376.13418254	     57.49016535	     67.50919825
      3.05000000	    -19.68556497	      1.94530448	      7.40088770	      0.51746390	      0.93420406	     -0.08463087	     37.70253153	     -6.46056166	     -0.68046245	     28.75179308	      0.50181346	     25.96959084	     -1.05486121	     -7.49999987	     36.34528297	     -0.84171795	     -3.13492391	     25.51444176	      0.44531102	     16.35343285	      8.21041865	     -7.49999987	    -24.02763104	     -1.03239835	     -2.84960164	    226.52982745	   -181.84790245	    187.00460364	     66.31387919	     75.37133854	    413.69789078	      0.93575412	    377.45226747	     62.40099895	     67.21242347
      3.06666670	    -19.84331259	      1.70213632	      7.22598090	      0.51730236	      0.93806490	     -0.08542548	     36.40713665	     -5.96942944	     -0.35603761	     26.48717466	      0.46228841	     25.87217452	     -1.12508634	     -7.49999987	     35.09586403	     -1.16846486	     -3.38205989	     23.04620725	      0.40223220	     16.23678279	      8.15218217	     -7.49999987	    -21.60372301	     -1.23785712	     -2.41484970	    225.70681969	   -181.50539156	    189.53202482	     70.87151647	     75.51311114	    414.25969535	      2.95986790	    379.06813548	     65.45088609	     66.53034241
      3.08333330	    -19.90356309	      1.50193994	      6.98729209	      0.52538407	      0.94976844	     -0.08578584	     34.32829766	     -5.42353326	     -0.05697412	     23.19825328	      0.40488590	     25.13167588	     -1.31902234	     -7.49999987	     33.02024382	     -1.28311263	     -3.04721878	     19.45199432	      0.33950135	     15.36611553	      7.68274971	     -7.49999987	    -19.46708384	     -1.52018489	     -1.70861852	    225.11848489	   -180.89335161	    192.10971142	     73.71528564	     75.03845886	    414.51269176	      5.25291417	    381.07766639	     67.16795600	     61.22185425
      3.10000000	    -19.94601121	      1.26637686	      6.62177007	      0.52590676	      0.95918405	     -0.08577844	     32.19098050	     -4.82570018	      0.42949539	     19.55374291	      0.34127719	     24.20328880	     -1.38017557	     -7.49999987	     31.05568878	     -1.40674790	     -2.57967867	     16.08815034	      0.28079119	     14.39251095	      6.78698304	     -7.49999987	    -17.57126217	     -1.59048939	     -1.14918008	    224.46555784	   -180.57837783	    193.52945415	     76.18158060	     75.82188721	    414.22321331	      6.90902969	    381.55614375	     69.82827616	     61.39757403
      3.11666670	    -19.38318000	      1.01775498	      6.07578284	      0.53847308	      0.96620763	     -0.08253967	     29.30034512	     -4.04152988	      0.98017646	     15.88841728	      0.27730519	     22.88079980	     -1.69706218	     -7.49999987	     28.41811019	     -1.74546833	     -2.07688377	     12.91299515	      0.22537428	     13.61225704	      6.02457528	     -7.49999987	    -16.33378023	     -1.68730738	     -0.37567008	    223.88824860	   -180.72587129	    194.83581124	     77.30706123	     75.96234753	    412.98033866	      8.36293461	    383.18465554	     72.03000293	     61.36771213
      3.13333330	    -19.07215333	      0.88770750	      5.36803960	      0.54254875	      0.96896090	     -0.07936118	     26.96326285	     -3.46438134	      0.57906014	     12.84059404	      0.22411064	     21.19918485	     -2.12679109	     -7.49999987	     26.37495245	     -2.04077474	     -1.77521764	     10.48956869	      0.18307751	     13.06844132	      5.36129871	     -7.49999987	    -14.89933093	     -2.01654745	      0.38433470	    223.37543672	   -180.86044957	    196.00302328	     77.96864369	     76.10856601	    412.09471446	      9.12456189	    384.51608618	     73.54136633	     61.32678671
      3.15000000	    -18.79539848	      0.75945331	      4.65333404	      0.54252012	      0.96459172	     -0.07915311	     25.34991294	     -2.86092598	      0.95212368	     10.69043567	      0.18658330	     20.37181650	     -2.50901295	     -7.49999987	     25.02332659	     -2.29140877	     -1.38024597	      9.11871437	      0.15915159	     13.13623449	      4.27009201	     -7.49999987	    -13.56971687	     -2.21403344	      0.75693882	    223.79751438	   -181.28059779	    197.47937299	     78.47226143	     75.80356947	    411.76579951	      9.57894299	    385.46481339	     74.63335112	     61.59392382
      3.16666670	    -18.70828854	      0.62453345	      4.06360506	      0.54571143	      0.96190200	     -0.07700096	     24.29679813	     -2.35105013	      0.70153845	      9.19035821	      0.16040201	     19.35047955	     -3.10413595	     -7.49999987	     24.13220000	     -2.57728080	     -0.89382995	      8.17342509	      0.14265318	     13.04433554	      3.34331609	     -7.49999987	    -12.37814047	     -2.38089044	      0.97022494	    225.13357675	   -181.06635712	    197.78156431	     80.29380215	     75.57354053	    412.10249384	     10.08871533	    385.02948367	     75.19221980	     61.51072157
      3.18333330	    -18.59115304	      0.38830012	      3.80648953	      0.54582301	      0.96301046	     -0.07695079	     23.53517945	     -1.88944003	      0.63722560	      8.21563391	      0.14338986	     18.60923650	     -3.66508982	     -7.49999987	     23.59954994	     -2.84624213	     -0.07955006	      7.73552197	      0.13501033	     12.79534328	      2.21309408	     -7.49999987	    -11.61235528	     -2.30476560	      1.27497736	    226.64469189	   -180.85371421	    197.63957512	     81.64538737	     75.16188582	    413.28792921	     10.68187228	    384.51165130	     75.68944693	     61.35532018
      3.20000000	    -18.42790734	      0.08685338	      3.84336974	      0.54928929	      0.96472595	     -0.07496375	     22.87705234	     -1.31158899	      1.28560444	      7.19453741	      0.12556837	     18.01931558	     -4.09080922	     -7.49999987	     23.32609860	     -3.10907720	      1.00249522	      7.67636477	      0.13397784	     12.32657663	      1.14214481	     -7.49999987	    -11.14272871	     -2.24887515	      1.30398131	    226.28299887	   -181.15876969	    197.32448660	     84.01579486	     75.29646994	    413.76815704	     10.88351972	    383.99772766	     76.48850533	     60.99527549
      3.21666670	    -18.12691227	     -0.14364752	      3.91379164	      0.55267917	      0.96190072	     -0.07772807	     22.05679529	     -0.98086133	      2.03634080	      6.41227072	      0.11191524	     17.83709178	     -4.19859692	     -7.49999987	     23.06762988	     -3.30915643	      1.91238684	      7.89483924	      0.13779094	     12.11578114	      0.58170259	     -7.49999987	    -10.71714181	     -2.11023640	      1.02436184	    225.47721398	   -181.13908080	    197.14008904	     85.78543250	     75.58008092	    413.96336637	     11.14994040	    383.81285280	     77.81036930	     60.78598269
      3.23333330	    -17.89385904	     -0.14320136	      3.96511858	      0.55223674	      0.95703340	     -0.07845345	     21.66139661	     -0.94053886	      2.74171901	      6.05015334	      0.10559510	     18.01598165	     -4.18029721	     -7.49999987	     23.08261780	     -3.28207884	      2.57180930	      8.33066682	      0.14539756	     12.01260965	      0.06445969	     -7.49999987	    -10.29476112	     -2.22713044	      0.67275341	    224.38885779	   -181.21964683	    196.65668428	     87.17350619	     76.97025951	    414.26713871	     11.29855286	    383.61851200	     78.57254023	     60.85689204
